<?xml version="1.0" encoding="utf-8"?>
<!-- Generator: Adobe Illustrator 26.0.3, SVG Export Plug-In . SVG Version: 6.00 Build 0)  -->
<svg version="1.1" id="Layer_1" xmlns="http://www.w3.org/2000/svg" xmlns:xlink="http://www.w3.org/1999/xlink" x="0px" y="0px"
	 viewBox="0 0 1920 1080" style="enable-background:new 0 0 1920 1080;" xml:space="preserve">
<style type="text/css">
	.st0{fill:#1E5DDB;}
</style>
<path class="st0" d="M1920.8,1080c-640.3,0-1280.5,0-1920.8,0c0-76.5,0-152.9,0-229.3c1.2-0.6,2.4-1,3.6-1.7
	c70.2-43.6,142.6-70.3,215.8-89.4c34.2-8.9,68.8-14.9,103.3-19.6c37.8-5.2,75.8-9.5,113.7-10.3c38.2-0.9,76.5,1.7,114.6,4.9
	c35.6,3,71.3,7.1,106.7,14.2c38.3,7.6,76.6,16.8,114.5,29.6c54.5,18.4,109,37.4,162.8,61.8c91.5,41.7,183.2,81.3,277,101.8
	c42,9.2,84.1,18.1,126.3,23.8c36.8,5,73.9,7,110.8,7c40.2,0,80.4-3.1,120.6-6.4c27.1-2.3,54.3-5.9,81.3-11.5
	c30.6-6.4,61.2-14.9,91.6-23.8c58.1-16.9,115.2-41.2,171.1-74.6c2-1.2,4-1.9,6.6-3.1c0,66,0,130.1,0,194.2
	C1920.2,1058.3,1920.6,1069.2,1920.8,1080z"/>
</svg>
